HIERARCHY
ROOT Hips
{
	OFFSET 0.000000 0.000000 0.000000
	CHANNELS 6 Xposition Yposition Zposition Zrotation Yrotation Xrotation 
	JOINT LHipJoint
	{
		OFFSET 0.000000 0.000000 0.000000
		CHANNELS 3 Zrotation Yrotation Xrotation
		JOINT LeftUpLeg
		{
			OFFSET 1.363060 -1.794630 0.839290
			CHANNELS 3 Zrotation Yrotation Xrotation
			JOINT LeftLeg
			{
				OFFSET 2.448110 -6.726130 0.000000
				CHANNELS 3 Zrotation Yrotation Xrotation
				JOINT LeftFoot
				{
					OFFSET 2.562200 -7.039590 0.000000
					CHANNELS 3 Zrotation Yrotation Xrotation
					JOINT LeftToeBase
					{
						OFFSET 0.157640 -0.433110 2.322550
						CHANNELS 3 Zrotation Yrotation Xrotation
						End Site
						{
							OFFSET 0.000000 0.000000 0.000000
						}
					}
				}
			}
		}
	}
	JOINT RHipJoint
	{
		OFFSET 0.000000 0.000000 0.000000
		CHANNELS 3 Zrotation Yrotation Xrotation
		JOINT RightUpLeg
		{
			OFFSET -1.305520 -1.794630 0.839290
			CHANNELS 3 Zrotation Yrotation Xrotation
			JOINT RightLeg
			{
				OFFSET -2.542530 -6.985550 0.000000
				CHANNELS 3 Zrotation Yrotation Xrotation
				JOINT RightFoot
				{
					OFFSET -2.568260 -7.056230 0.000000
					CHANNELS 3 Zrotation Yrotation Xrotation
					JOINT RightToeBase
					{
						OFFSET -0.164730 -0.452590 2.363150
						CHANNELS 3 Zrotation Yrotation Xrotation
						End Site
						{
							OFFSET 0.000000 0.000000 0.000000
						}
					}
				}
			}
		}
	}
}
MOTION
Frames: 22
Frame Time: 0.008333
-1.472558 16.366565 1.287354 -165.631645 -86.016404 -175.388452 -9.097397 0.340284 4.265789 -8.999686 -6.662167 -51.967998 -2.191546 0.927283 24.909710 0.325865 0.587778 -1.292830 0.370100 0.000000 -24.572799 9.895011 -2.189261 -1.114842 10.419774 -4.727189 -17.023004 1.422073 -2.366761 43.137216 -0.203784 2.349352 -11.769543 -0.024000 0.000001 -84.106600
-1.609539 16.340639 1.295330 -176.223670 -85.980929 -164.240399 -9.272707 0.267859 4.275710 -9.553635 -7.044436 -52.841047 -2.164827 1.074213 26.445403 0.365882 0.701191 -1.828296 0.363400 0.000000 -23.757000 9.924273 -2.144267 -1.176764 9.702798 -4.850939 -19.866253 0.960763 -2.731813 47.708228 -0.183566 2.021963 -9.869760 -0.015700 0.000000 -85.431800
-1.742257 16.309956 1.301911 174.674560 -86.009672 -154.529514 -9.361547 0.132750 4.254637 -10.091925 -7.466435 -53.735863 -2.142811 1.190738 28.029042 0.396645 0.764889 -2.508143 0.346200 -0.000000 -22.853599 10.030390 -2.107536 -1.202856 9.071721 -4.878481 -22.859633 0.507423 -3.104101 52.250139 -0.213269 1.526550 -7.994508 -0.001400 -0.000000 -85.699000
-1.870814 16.274190 1.307439 167.622663 -86.022229 -146.820793 -9.343480 0.006412 4.212707 -10.585124 -7.880858 -54.684791 -2.127853 1.295982 29.662246 0.425193 0.787052 -3.339528 0.317400 0.000000 -21.899300 10.221429 -2.015018 -1.197688 8.544862 -4.775912 -25.946112 0.058288 -3.455653 56.712642 -0.286823 0.899702 -6.273644 0.003200 -0.000000 -84.991200
-1.995339 16.233214 1.312358 162.596324 -85.976238 -141.095042 -9.255164 -0.084779 4.159322 -11.027349 -8.261008 -55.711545 -2.118452 1.405524 31.343342 0.456415 0.775284 -4.314356 0.277000 -0.000001 -20.936900 10.450865 -1.843199 -1.169231 8.117845 -4.532167 -29.090447 -0.383042 -3.772824 61.051381 -0.392782 0.181816 -4.828981 -0.012900 -0.000000 -83.526000
-2.116284 16.187117 1.317206 159.257995 -85.874695 -137.013873 -9.136108 -0.145971 4.099852 -11.420359 -8.602518 -56.828074 -2.111260 1.525829 33.072414 0.491635 0.733767 -5.409631 0.226300 0.000000 -20.012399 10.675467 -1.602253 -1.122193 7.782803 -4.160246 -32.278218 -0.808332 -4.058206 65.221788 -0.517129 -0.583646 -3.752081 -0.052100 0.000000 -81.595800
-2.234101 16.136064 1.322467 157.235030 -85.737862 -134.204308 -9.011313 -0.189681 4.037045 -11.763212 -8.909293 -58.041893 -2.102679 1.658810 34.851370 0.530189 0.664410 -6.593987 0.167800 -0.000000 -19.167101 10.870502 -1.311375 -1.058203 7.535859 -3.680166 -35.505512 -1.211728 -4.319736 69.181472 -0.645865 -1.349527 -3.091240 -0.106900 -0.000000 -79.496700
-2.349359 16.080366 1.328598 156.195762 -85.587392 -132.333485 -8.893822 -0.226102 3.973588 -12.053011 -9.189643 -59.356165 -2.089472 1.804278 36.677689 0.570919 0.570722 -7.831457 0.104901 -0.000000 -18.434500 11.024898 -0.988289 -0.976948 7.372966 -3.111903 -38.772092 -1.590709 -4.564535 72.892394 -0.766429 -2.063528 -2.850814 -0.163600 0.000000 -77.469600
-2.462658 16.020364 1.335938 155.882152 -85.441823 -131.142144 -8.789911 -0.261838 3.912358 -12.285838 -9.453506 -60.772025 -2.068713 1.961480 38.546709 0.612610 0.457545 -9.086639 0.041000 -0.000000 -17.836001 11.134378 -0.646555 -0.877386 7.288977 -2.471996 -42.078673 -1.944427 -4.797061 76.322887 -0.868286 -2.670570 -2.999282 -0.206500 0.000000 -75.672600
-2.574710 15.956264 1.344803 156.091276 -85.315619 -130.422654 -8.701625 -0.300834 3.856743 -12.457282 -9.714184 -62.289851 -2.037819 2.129064 40.450296 0.654328 0.331830 -10.326602 -0.020500 0.000000 -17.381301 11.198037 -0.295720 -0.758318 7.275235 -1.773266 -45.428801 -2.272035 -5.019632 79.447811 -0.943011 -3.117544 -3.477257 -0.223800 0.000000 -74.184301
-2.685981 15.888477 1.355304 156.649907 -85.220863 -130.005010 -8.628781 -0.344875 3.809962 -12.566092 -9.983868 -63.900216 -1.994858 2.304895 42.376227 0.695176 0.200437 -11.523123 -0.077500 -0.000000 -17.067300 11.217093 0.056545 -0.618029 7.318465 -1.026699 -48.819957 -2.572005 -5.233182 82.248222 -0.984251 -3.359087 -4.206274 -0.211300 0.000000 -73.021400
-2.797093 15.817078 1.367521 157.421747 -85.166483 -129.749457 -8.569596 -0.395008 3.774870 -12.610509 -10.277425 -65.597830 -1.938324 2.486701 44.313437 0.734792 0.070919 -12.656469 -0.128399 0.000000 -16.881299 11.193217 0.405185 -0.456092 7.403213 -0.241052 -52.253980 -2.842379 -5.438127 84.714038 -0.988023 -3.364525 -5.098287 -0.173300 -0.000000 -72.166000
-2.908461 15.742254 1.381371 158.268887 -85.159992 -129.521764 -8.521210 -0.450942 3.753990 -12.593678 -10.608216 -67.366970 -1.867589 2.671305 46.248239 0.773040 -0.050234 -13.714382 -0.173100 0.000000 -16.803000 11.129773 0.745423 -0.271713 7.508916 0.573861 -55.726203 -3.081282 -5.634809 86.841916 -0.953221 -3.123862 -6.063639 -0.121100 0.000000 -71.581400
-3.020388 15.664012 1.396643 159.069841 -85.206183 -129.204544 -8.480465 -0.512466 3.748477 -12.519228 -10.987850 -69.194041 -1.782656 2.855821 48.170960 0.810132 -0.158270 -14.694828 -0.212100 -0.000000 -16.806900 11.030266 1.073733 -0.065619 7.615392 1.408544 -59.231953 -3.287665 -5.823667 88.637831 -0.881941 -2.650482 -7.022692 -0.068400 -0.000000 -71.227000
-3.133245 15.582249 1.413117 159.711659 -85.307967 -128.687880 -8.444469 -0.578796 3.758775 -12.392867 -11.424810 -71.063568 -1.684219 3.037420 50.074427 0.846562 -0.250284 -15.604056 -0.246500 -0.000000 -16.865500 10.898846 1.386597 0.161098 7.702799 2.253253 -62.763097 -3.461488 -6.005108 90.115465 -0.779586 -1.980929 -7.915019 -0.026800 -0.000001 -71.062300
-3.247034 15.496862 1.430510 160.084584 -85.465055 -127.871100 -8.410742 -0.649802 3.783475 -12.220339 -11.923078 -72.960980 -1.573416 3.213998 51.956254 0.883018 -0.325189 -16.455641 -0.278000 0.000000 -16.951900 10.739764 1.681160 0.405783 7.754107 3.098463 -66.307731 -3.603783 -6.179586 91.296077 -0.654266 -1.169746 -8.706854 -0.002700 0.000000 -71.050001
-3.361861 15.407696 1.448586 160.095813 -85.674057 -126.668709 -8.377878 -0.725165 3.820628 -12.007615 -12.481036 -74.873070 -1.451753 3.384159 53.818091 0.920271 -0.383705 -17.267932 -0.307900 -0.000000 -17.043200 10.557474 1.954047 0.665914 7.757072 3.936509 -69.850306 -3.716058 -6.347306 92.206016 -0.515649 -0.280843 -9.393354 0.003100 0.000000 -71.156600
-3.477684 15.314545 1.467081 159.666237 -85.928090 -125.009061 -8.345482 -0.805429 3.866840 -11.758943 -13.092072 -76.790575 -1.320674 3.547621 55.666722 0.959116 -0.427427 -18.061413 -0.337701 -0.000000 -17.122800 10.356046 2.202331 0.938125 7.704015 4.762834 -73.373435 -3.799977 -6.508351 92.875595 -0.373609 0.621929 -9.995724 -0.006200 0.000000 -71.351800
-3.594353 15.217357 1.485860 158.745940 -86.217299 -122.851288 -8.314235 -0.891750 3.918171 -11.477249 -13.743126 -78.707697 -1.181456 3.705097 57.511693 1.000292 -0.458018 -18.854888 -0.368700 -0.000000 -17.183300 10.139329 2.422803 1.219474 7.592779 5.576933 -76.857051 -3.857049 -6.662501 93.336218 -0.237058 1.482928 -10.550732 -0.026700 -0.000000 -71.608299
-3.711647 15.116037 1.504827 157.316307 -86.529960 -120.183990 -8.285551 -0.986329 3.969725 -11.163205 -14.417480 -80.622054 -1.034871 3.858129 59.365088 1.044404 -0.476610 -19.663621 -0.401600 -0.000001 -17.226501 9.910675 2.612858 1.506735 7.424545 6.382454 -80.282049 -3.888797 -6.809418 93.619886 -0.112853 2.262029 -11.099391 -0.054900 0.000000 -71.898700
-3.829267 15.010653 1.523863 155.416495 -86.853845 -117.053323 -8.261246 -1.091783 4.016762 -10.816341 -15.094573 -82.533929 -0.881154 4.008810 61.239219 1.092025 -0.482644 -20.497070 -0.437500 -0.000000 -17.264300 9.673405 2.770077 1.797383 7.203499 7.186235 -83.629031 -3.897106 -6.948430 93.757467 -0.005480 2.936463 -11.673011 -0.088200 -0.000000 -72.196400
-3.946990 14.901291 1.542886 153.155964 -87.178454 -113.573492 -8.243053 -1.210947 4.054462 -10.435458 -15.753103 -84.444597 -0.719872 4.159426 63.145765 1.143614 -0.473765 -21.358204 -0.477000 -0.000000 -17.315401 9.430649 2.893240 2.088843 6.935032 7.997238 -86.881456 -3.884895 -7.078630 93.779120 0.083103 3.500400 -12.283217 -0.124800 -0.000000 -72.477799
